<mxfile host="app.diagrams.net" agent="Mozilla/5.0 (Windows NT 10.0; Win64; x64) AppleWebKit/537.36 (KHTML, like Gecko) Chrome/134.0.0.0 Safari/537.36" version="26.2.4">
  <diagram name="페이지-1" id="EVLY_-dnvV3rrEfAHdKR">
    <mxGraphModel dx="1491" dy="803" grid="1" gridSize="10" guides="1" tooltips="1" connect="1" arrows="1" fold="1" page="1" pageScale="1" pageWidth="827" pageHeight="1169" math="0" shadow="0">
      <root>
        <mxCell id="0" />
        <mxCell id="1" parent="0" />
        <mxCell id="9U1fuUkYCwCf-c9RlT_z-1" value="User Interface" style="rounded=0;whiteSpace=wrap;html=1;" vertex="1" parent="1">
          <mxGeometry x="179" y="60" width="470" height="60" as="geometry" />
        </mxCell>
        <mxCell id="9U1fuUkYCwCf-c9RlT_z-6" value="" style="endArrow=classic;html=1;rounded=0;exitX=0.5;exitY=1;exitDx=0;exitDy=0;" edge="1" parent="1" source="9U1fuUkYCwCf-c9RlT_z-1">
          <mxGeometry width="50" height="50" relative="1" as="geometry">
            <mxPoint x="369" y="320" as="sourcePoint" />
            <mxPoint x="414" y="270" as="targetPoint" />
          </mxGeometry>
        </mxCell>
        <mxCell id="9U1fuUkYCwCf-c9RlT_z-7" value="Memory Hub" style="rounded=0;whiteSpace=wrap;html=1;" vertex="1" parent="1">
          <mxGeometry x="179" y="280" width="470" height="60" as="geometry" />
        </mxCell>
        <mxCell id="9U1fuUkYCwCf-c9RlT_z-8" value="" style="endArrow=none;html=1;rounded=0;entryX=0.5;entryY=1;entryDx=0;entryDy=0;" edge="1" parent="1">
          <mxGeometry width="50" height="50" relative="1" as="geometry">
            <mxPoint x="413" y="440" as="sourcePoint" />
            <mxPoint x="413" y="340" as="targetPoint" />
          </mxGeometry>
        </mxCell>
        <mxCell id="9U1fuUkYCwCf-c9RlT_z-9" value="" style="endArrow=none;html=1;rounded=0;" edge="1" parent="1">
          <mxGeometry width="50" height="50" relative="1" as="geometry">
            <mxPoint x="209" y="440" as="sourcePoint" />
            <mxPoint x="619" y="440" as="targetPoint" />
          </mxGeometry>
        </mxCell>
        <mxCell id="9U1fuUkYCwCf-c9RlT_z-11" value="" style="endArrow=classic;html=1;rounded=0;" edge="1" parent="1">
          <mxGeometry width="50" height="50" relative="1" as="geometry">
            <mxPoint x="209" y="440" as="sourcePoint" />
            <mxPoint x="209" y="510" as="targetPoint" />
          </mxGeometry>
        </mxCell>
        <mxCell id="9U1fuUkYCwCf-c9RlT_z-12" value="" style="endArrow=classic;html=1;rounded=0;" edge="1" parent="1">
          <mxGeometry width="50" height="50" relative="1" as="geometry">
            <mxPoint x="412.99999999999994" y="440" as="sourcePoint" />
            <mxPoint x="412.99999999999994" y="510" as="targetPoint" />
          </mxGeometry>
        </mxCell>
        <mxCell id="9U1fuUkYCwCf-c9RlT_z-13" value="" style="endArrow=classic;html=1;rounded=0;" edge="1" parent="1">
          <mxGeometry width="50" height="50" relative="1" as="geometry">
            <mxPoint x="619" y="440" as="sourcePoint" />
            <mxPoint x="619" y="510" as="targetPoint" />
          </mxGeometry>
        </mxCell>
        <mxCell id="9U1fuUkYCwCf-c9RlT_z-14" value="" style="endArrow=classic;html=1;rounded=0;" edge="1" parent="1">
          <mxGeometry width="50" height="50" relative="1" as="geometry">
            <mxPoint x="413" y="640" as="sourcePoint" />
            <mxPoint x="413.41" y="720" as="targetPoint" />
          </mxGeometry>
        </mxCell>
        <mxCell id="9U1fuUkYCwCf-c9RlT_z-15" value="Permission&lt;div&gt;Manger&lt;/div&gt;" style="whiteSpace=wrap;html=1;aspect=fixed;" vertex="1" parent="1">
          <mxGeometry x="169" y="520" width="80" height="80" as="geometry" />
        </mxCell>
        <mxCell id="9U1fuUkYCwCf-c9RlT_z-16" value="Context&lt;div&gt;Filter&lt;/div&gt;" style="whiteSpace=wrap;html=1;aspect=fixed;" vertex="1" parent="1">
          <mxGeometry x="374" y="520" width="80" height="80" as="geometry" />
        </mxCell>
        <mxCell id="9U1fuUkYCwCf-c9RlT_z-17" value="Logger &amp;amp; VC" style="whiteSpace=wrap;html=1;aspect=fixed;" vertex="1" parent="1">
          <mxGeometry x="374" y="730" width="80" height="80" as="geometry" />
        </mxCell>
        <mxCell id="9U1fuUkYCwCf-c9RlT_z-18" value="External API Integrator" style="whiteSpace=wrap;html=1;aspect=fixed;" vertex="1" parent="1">
          <mxGeometry x="579" y="520" width="80" height="80" as="geometry" />
        </mxCell>
        <mxCell id="9U1fuUkYCwCf-c9RlT_z-22" value="" style="endArrow=classic;html=1;rounded=0;" edge="1" parent="1">
          <mxGeometry width="50" height="50" relative="1" as="geometry">
            <mxPoint x="413.5" y="820" as="sourcePoint" />
            <mxPoint x="413.5" y="920" as="targetPoint" />
          </mxGeometry>
        </mxCell>
        <mxCell id="9U1fuUkYCwCf-c9RlT_z-23" value="AI" style="rounded=0;whiteSpace=wrap;html=1;" vertex="1" parent="1">
          <mxGeometry x="354" y="930" width="120" height="60" as="geometry" />
        </mxCell>
        <mxCell id="9U1fuUkYCwCf-c9RlT_z-24" value="" style="endArrow=classic;html=1;rounded=0;" edge="1" parent="1">
          <mxGeometry width="50" height="50" relative="1" as="geometry">
            <mxPoint x="413.5" y="1000" as="sourcePoint" />
            <mxPoint x="413.5" y="1070" as="targetPoint" />
          </mxGeometry>
        </mxCell>
        <mxCell id="9U1fuUkYCwCf-c9RlT_z-25" value="&lt;font style=&quot;font-size: 19px;&quot;&gt;Output&lt;/font&gt;" style="text;html=1;align=center;verticalAlign=middle;whiteSpace=wrap;rounded=0;" vertex="1" parent="1">
          <mxGeometry x="341.5" y="1090" width="145" height="70" as="geometry" />
        </mxCell>
        <mxCell id="9U1fuUkYCwCf-c9RlT_z-28" value="" style="endArrow=none;html=1;rounded=0;" edge="1" parent="1">
          <mxGeometry width="50" height="50" relative="1" as="geometry">
            <mxPoint x="208.41" y="640" as="sourcePoint" />
            <mxPoint x="208.41" y="600" as="targetPoint" />
          </mxGeometry>
        </mxCell>
        <mxCell id="9U1fuUkYCwCf-c9RlT_z-31" value="" style="endArrow=none;html=1;rounded=0;" edge="1" parent="1">
          <mxGeometry width="50" height="50" relative="1" as="geometry">
            <mxPoint x="630" y="640" as="sourcePoint" />
            <mxPoint x="630" y="600" as="targetPoint" />
          </mxGeometry>
        </mxCell>
        <mxCell id="9U1fuUkYCwCf-c9RlT_z-32" value="" style="endArrow=none;html=1;rounded=0;" edge="1" parent="1">
          <mxGeometry width="50" height="50" relative="1" as="geometry">
            <mxPoint x="210" y="640" as="sourcePoint" />
            <mxPoint x="630" y="640" as="targetPoint" />
          </mxGeometry>
        </mxCell>
      </root>
    </mxGraphModel>
  </diagram>
</mxfile>
